<svg xmlns="http://www.w3.org/2000/svg" width="300" height="300" viewBox="0 0 300 300"><rect width="100%" height="100%" fill="#3B82F6"/><path fill="#FFFFFF" d="M86.665 121.855v35.88q0 4.7-1.15 8.47-1.16 3.77-3.45 6.43t-5.72 4.08q-3.42 1.43-7.97 1.43-2.08 0-4.08-.25t-4.19-.79q.11-1.54.27-3.08.15-1.54.27-3.08.11-.85.67-1.37t1.6-.52q.65 0 1.71.27t2.68.27q2.19 0 3.88-.64 1.7-.63 2.83-2.02 1.14-1.38 1.72-3.6.57-2.21.57-5.37v-36.11zm34.27 47.32q3 0 5.37-1.01 2.36-1 3.98-2.81t2.48-4.38q.87-2.58.87-5.78v-33.34h10.36v33.34q0 4.97-1.6 9.18-1.6 4.22-4.58 7.28-2.99 3.06-7.26 4.77-4.27 1.72-9.62 1.72-5.39 0-9.67-1.72-4.27-1.71-7.25-4.77-2.99-3.06-4.59-7.28-1.59-4.21-1.59-9.18v-33.34h10.35v33.3q0 3.2.87 5.78t2.5 4.4q1.64 1.83 4.01 2.83 2.36 1.01 5.37 1.01m45.12-.2h22.25v8.55h-32.61v-55.67h10.36zm73.84-47.12-20.29 34.11v21.56h-10.32v-21.56l-20.29-34.11h9.13q1.35 0 2.14.65.78.66 1.32 1.66l10.17 18.59q.88 1.66 1.56 3.12.67 1.47 1.21 2.93.5-1.46 1.15-2.93.66-1.46 1.51-3.12l10.12-18.59q.43-.85 1.27-1.58.85-.73 2.16-.73z"/></svg>