<svg xmlns="http://www.w3.org/2000/svg" width="300" height="300" viewBox="0 0 300 300"><rect width="100%" height="100%" fill="#F59E0B"/><path fill="#FFFFFF" d="M74.44 140.755h3.08v18.8h-1.79q-.42 0-.7-.14-.28-.13-.54-.46l-9.81-12.53q.08.86.08 1.59v11.54h-3.08v-18.8h1.83q.22 0 .38.02.17.02.29.08t.24.17.26.29l9.85 12.58q-.04-.45-.06-.89-.03-.44-.03-.82zm12.66 5.25q1.49 0 2.7.48 1.22.49 2.08 1.37.87.88 1.33 2.16.47 1.27.47 2.84 0 1.59-.47 2.86-.46 1.28-1.33 2.18-.86.89-2.08 1.37-1.21.49-2.7.49t-2.71-.49q-1.22-.48-2.09-1.37-.86-.9-1.34-2.18-.47-1.27-.47-2.86 0-1.57.47-2.84.48-1.28 1.34-2.16.87-.88 2.09-1.37 1.22-.48 2.71-.48m0 11.27q1.67 0 2.47-1.11.8-1.12.8-3.28t-.8-3.29-2.47-1.13q-1.69 0-2.5 1.14t-.81 3.28q0 2.15.81 3.27t2.5 1.12m18.53-11.06h2.53l-5.29 13.34h-2.91l-5.29-13.34h2.65q.37 0 .61.17t.32.43l2.57 7.12q.21.63.36 1.23.16.59.28 1.19.13-.6.28-1.19.16-.6.38-1.23l2.63-7.12q.09-.26.32-.43t.56-.17m6.77 5.14h6.06q0-.63-.17-1.18-.18-.55-.53-.97-.35-.41-.89-.65-.54-.25-1.26-.25-1.39 0-2.19.8-.8.79-1.02 2.25m8.19 1.93h-8.25q.08 1.03.36 1.78.29.75.76 1.23.46.49 1.11.73.64.24 1.42.24t1.35-.18q.56-.18.98-.4.43-.22.75-.41.31-.18.61-.18.41 0 .6.3l.92 1.17q-.53.62-1.19 1.05-.67.42-1.39.67-.72.26-1.47.36-.74.11-1.45.11-1.39 0-2.58-.47-1.2-.46-2.08-1.36-.89-.91-1.39-2.24-.51-1.33-.51-3.09 0-1.36.44-2.56.44-1.21 1.27-2.1.82-.89 2.01-1.41t2.69-.52q1.26 0 2.33.41 1.06.4 1.83 1.17.77.78 1.2 1.9.44 1.13.44 2.57 0 .73-.16.98t-.6.25m6.37 6.27h-3.21v-13.34h1.96q.63 0 .82.59l.21.98q.35-.39.74-.71.38-.33.82-.56.43-.23.93-.37t1.1-.14q1.26 0 2.07.69.82.68 1.22 1.81.31-.66.78-1.14.47-.47 1.03-.77.55-.3 1.19-.44.63-.15 1.26-.15 1.11 0 1.97.34.85.34 1.44.99.58.65.89 1.59.3.93.3 2.14v8.49h-3.21v-8.49q0-1.27-.56-1.92-.55-.64-1.63-.64-.5 0-.92.17t-.74.49q-.32.31-.5.8-.18.48-.18 1.1v8.49h-3.23v-8.49q0-1.34-.54-1.95t-1.58-.61q-.7 0-1.3.34-.61.35-1.13.95zm21.78-9.44v5.98q.54.66 1.19.94.64.27 1.36.27.74 0 1.33-.27.59-.26 1.01-.83.41-.56.63-1.44t.22-2.1q0-2.2-.72-3.18-.73-.98-2.1-.98-.92 0-1.61.42t-1.31 1.19m0-9.88v7.62q.8-.85 1.79-1.35.98-.5 2.24-.5 1.15 0 2.08.46.93.45 1.59 1.31.66.85 1.01 2.06.35 1.2.35 2.71 0 1.63-.4 2.95-.41 1.33-1.15 2.27-.75.94-1.81 1.46-1.05.53-2.34.53-.62 0-1.13-.13-.5-.12-.93-.34t-.79-.54-.68-.71l-.14.9q-.08.33-.27.48-.19.14-.51.14h-2.12v-19.32zm14.08 11.12h6.05q0-.63-.17-1.18-.18-.55-.53-.97-.35-.41-.89-.65-.54-.25-1.25-.25-1.39 0-2.19.8-.8.79-1.02 2.25m8.19 1.93h-8.26q.08 1.03.37 1.78.28.75.75 1.23.47.49 1.11.73t1.42.24 1.35-.18.99-.4.74-.41q.32-.18.62-.18.4 0 .59.3l.93 1.17q-.54.62-1.2 1.05-.66.42-1.38.67-.72.26-1.47.36-.75.11-1.45.11-1.39 0-2.59-.47-1.19-.46-2.08-1.36-.88-.91-1.39-2.24t-.51-3.09q0-1.36.45-2.56.44-1.21 1.26-2.1.83-.89 2.02-1.41t2.68-.52q1.26 0 2.33.41 1.07.4 1.83 1.17.77.78 1.21 1.9.43 1.13.43 2.57 0 .73-.16.98-.15.25-.59.25m5.99-6.26.19 1.51q.63-1.2 1.49-1.88.85-.69 2.02-.69.93 0 1.49.41l-.21 2.4q-.07.24-.19.33-.12.1-.33.1-.2 0-.58-.06-.38-.07-.75-.07-.53 0-.95.16-.41.15-.74.45-.34.29-.59.7-.25.42-.47.95v8.22h-3.21v-13.34h1.88q.49 0 .69.18.19.17.26.63m17.19 2.68h2.18q.99 0 1.72-.25.74-.25 1.21-.68.48-.44.71-1.04t.23-1.31q0-1.43-.94-2.2-.94-.76-2.88-.76h-2.23zm6.47 2.91 4.71 6.94h-3.16q-.9 0-1.3-.7l-3.96-6.02q-.22-.34-.48-.48-.27-.15-.79-.15h-1.49v7.35h-3.5v-18.8h5.73q1.91 0 3.28.4 1.38.39 2.25 1.11.88.71 1.3 1.71.41.99.41 2.19 0 .95-.28 1.79-.28.85-.8 1.54-.53.69-1.3 1.21-.78.52-1.76.82.33.19.62.46.29.26.52.63m13.29 3.49v-2.24q-1.4.06-2.34.24-.95.17-1.53.44-.57.28-.81.64-.25.37-.25.79 0 .85.5 1.21.5.37 1.31.37.98 0 1.71-.36.72-.36 1.41-1.09m-6.79-7-.57-1.03q2.3-2.11 5.54-2.11 1.17 0 2.09.39.92.38 1.56 1.06.64.69.97 1.64.33.94.33 2.08v8.42h-1.46q-.45 0-.7-.14-.25-.13-.39-.55l-.29-.96q-.5.45-.98.8-.48.34-1 .58-.52.23-1.12.35-.59.13-1.3.13-.85 0-1.56-.23-.72-.23-1.24-.68-.52-.46-.8-1.13-.29-.68-.29-1.58 0-.5.17-1t.55-.96q.39-.45 1-.86.61-.4 1.5-.7t2.07-.49 2.71-.22v-.78q0-1.34-.58-1.99-.57-.64-1.65-.64-.78 0-1.29.18t-.9.41-.71.41-.71.18q-.34 0-.57-.17-.24-.18-.38-.41m13.04-2.89h3.22v13.34h-3.22zm3.66-3.89q0 .42-.16.78-.17.37-.45.64t-.66.44q-.38.16-.81.16-.41 0-.78-.16-.37-.17-.65-.44-.27-.27-.43-.64-.16-.36-.16-.78t.16-.8.43-.65q.28-.27.65-.44.37-.16.78-.16.43 0 .81.16.38.17.66.44t.45.65q.16.38.16.8m5.62 4.48.22 1.05q.4-.4.85-.75.45-.34.95-.58t1.07-.38q.58-.14 1.25-.14 1.09 0 1.94.37.84.37 1.41 1.04t.86 1.6.29 2.05v8.49h-3.21v-8.49q0-1.22-.56-1.89t-1.7-.67q-.83 0-1.56.38-.73.37-1.38 1.02v9.65h-3.21v-13.34h1.96q.63 0 .82.59"/></svg>